# xmcd
#
# Track frame offsets:
#	182
#	21160
#	40145
#	55280
#	66875
#	84315
#	97890
#	112995
#	129317
#	152432
#
# Disc length: 2253 seconds
# Revision: 2
# Processed by: cddbd v1.5.2PL0 Copyright (c) Steve Scherf et al.
# Submitted via: dBpowerAMP V12.0
#
DISCID=7008cb0a
DTITLE=Various Artist - Charly Blues Masterworks Vol. 15,  Live Action
DYEAR=1963
DGENRE=Blues
TTITLE0=Muddy Waters, Willie Dixon, Buddy Guy - Wee, Wee Baby
TTITLE1=Muddy Waters - Sitting and Thinking
TTITLE2=Buddy Guy - Worried Blues
TTITLE3=Sonny Boy Williamson - Bring It on Home
TTITLE4=Howlin' Wolf - Sugar Mama
TTITLE5=Muddy Waters - Clouds in My Heart
TTITLE6=Howlin' Wolf - May I Have a Talk With You
TTITLE7=Muddy Waters - Got My Mojo Working
TTITLE8=Buddy Guy - Don't Know Which Way to Go
TTITLE9=Muddy Waters - 19 Years Old
EXTD=
EXTT0=
EXTT1=
EXTT2=
EXTT3=
EXTT4=
EXTT5=
EXTT6=
EXTT7=
EXTT8=
EXTT9=
PLAYORDER=
